<?xml version="1.0" encoding="utf-8"?>
<!-- Generator: Adobe Illustrator 16.0.0, SVG Export Plug-In . SVG Version: 6.00 Build 0)  -->
<!DOCTYPE svg PUBLIC "-//W3C//DTD SVG 1.1//EN" "http://www.w3.org/Graphics/SVG/1.1/DTD/svg11.dtd">
<svg version="1.1" xmlns="http://www.w3.org/2000/svg" xmlns:xlink="http://www.w3.org/1999/xlink" x="0px" y="0px" width="70px"
	 height="70px" viewBox="0 0 70 70" enable-background="new 0 0 70 70" xml:space="preserve">
<g id="Calque_4">
	<path opacity="0.6" fill="#5C5C5C" stroke="#2D2D2D" stroke-miterlimit="10" d="M20,13c0,0.552-0.448,1-1,1H1c-0.552,0-1-0.448-1-1
		V1c0-0.552,0.448-1,1-1h18c0.552,0,1,0.448,1,1V13z"/>
	<path opacity="0.6" fill="#5C5C5C" stroke="#2D2D2D" stroke-miterlimit="10" d="M50,13c0,0.553-0.447,1-1,1H21
		c-0.553,0-1-0.447-1-1V1c0-0.553,0.447-1,1-1h28c0.553,0,1,0.447,1,1V13z"/>
	<path opacity="0.6" fill="#5C5C5C" stroke="#2D2D2D" stroke-miterlimit="10" d="M70,13c0,0.552-0.448,1-1,1H51
		c-0.553,0-1-0.448-1-1V1c0-0.553,0.447-1,1-1h18c0.552,0,1,0.448,1,1V13z"/>
	<path opacity="0.6" fill="#5C5C5C" stroke="#2D2D2D" stroke-miterlimit="10" d="M15,27c0,0.553-0.448,1-1,1H1c-0.552,0-1-0.447-1-1
		V15c0-0.553,0.448-1,1-1h13c0.552,0,1,0.447,1,1V27z"/>
	<path opacity="0.6" fill="#5C5C5C" stroke="#2D2D2D" stroke-miterlimit="10" d="M45,27c0,0.553-0.447,1-1,1H16
		c-0.553,0-1-0.447-1-1V15c0-0.553,0.447-1,1-1h28c0.553,0,1,0.447,1,1V27z"/>
	<path opacity="0.6" fill="#5C5C5C" stroke="#2D2D2D" stroke-miterlimit="10" d="M70,27c0,0.553-0.447,1-1,1H46
		c-0.552,0-1-0.447-1-1V15c0-0.553,0.448-1,1-1h23c0.553,0,1,0.447,1,1V27z"/>
	<path opacity="0.6" fill="#5C5C5C" stroke="#2D2D2D" stroke-miterlimit="10" d="M70.001,41c0,0.553-0.447,1-1,1h-28
		c-0.552,0-1-0.447-1-1V29c0-0.553,0.448-1,1-1h28c0.553,0,1,0.447,1,1V41z"/>
	<path opacity="0.6" fill="#5C5C5C" stroke="#2D2D2D" stroke-miterlimit="10" d="M25,41c0,0.553-0.448,1-1,1H1c-0.552,0-1-0.447-1-1
		V29c0-0.553,0.448-1,1-1h23c0.552,0,1,0.447,1,1V41z"/>
	<path opacity="0.6" fill="#5C5C5C" stroke="#2D2D2D" stroke-miterlimit="10" d="M40,41c0,0.553-0.447,1-1,1H26
		c-0.552,0-1-0.447-1-1V29c0-0.552,0.448-1,1-1h13c0.553,0,1,0.448,1,1V41z"/>
	<path opacity="0.6" fill="#5C5C5C" stroke="#2D2D2D" stroke-miterlimit="10" d="M20,55.001c0,0.552-0.448,1-1,1H1
		c-0.552,0-1-0.448-1-1v-12c0-0.552,0.448-1,1-1h18c0.552,0,1,0.448,1,1V55.001z"/>
	<path opacity="0.6" fill="#5C5C5C" stroke="#2D2D2D" stroke-miterlimit="10" d="M50,55.001c0,0.553-0.447,1-1,1H21
		c-0.553,0-1-0.447-1-1v-12c0-0.553,0.447-1,1-1h28c0.553,0,1,0.447,1,1V55.001z"/>
	<path opacity="0.6" fill="#5C5C5C" stroke="#2D2D2D" stroke-miterlimit="10" d="M70,55.001c0,0.552-0.448,1-1,1H51
		c-0.553,0-1-0.448-1-1v-12C50,42.448,50.447,42,51,42h18c0.552,0,1,0.448,1,1.001V55.001z"/>
	<path opacity="0.6" fill="#5C5C5C" stroke="#2D2D2D" stroke-miterlimit="10" d="M15,69.001c0,0.553-0.448,1-1,1H1
		c-0.552,0-1-0.447-1-1v-12c0-0.553,0.448-1,1-1h13c0.552,0,1,0.447,1,1V69.001z"/>
	<path opacity="0.6" fill="#5C5C5C" stroke="#2D2D2D" stroke-miterlimit="10" d="M45,69.001c0,0.553-0.447,1-1,1H16
		c-0.553,0-1-0.447-1-1v-12c0-0.553,0.447-1,1-1h28c0.553,0,1,0.447,1,1V69.001z"/>
	<path opacity="0.6" fill="#5C5C5C" stroke="#2D2D2D" stroke-miterlimit="10" d="M70,69.001c0,0.553-0.447,1-1,1H46
		c-0.552,0-1-0.447-1-1v-12c0-0.553,0.448-1,1-1h23c0.553,0,1,0.447,1,1V69.001z"/>
	<path opacity="0.6" fill="#A0A09F" d="M1.167,6.583c0,0-0.25-5.678,6.333-5.678H1.917c0,0-0.751-0.011-0.751,1
		S1.167,6.583,1.167,6.583z"/>
	<path opacity="0.6" fill="#A0A09F" d="M21,6.583c0,0-0.25-5.678,6.333-5.678H21.75c0,0-0.751-0.011-0.751,1S21,6.583,21,6.583z"/>
	<path opacity="0.6" fill="#A0A09F" d="M51.168,6.583c0,0-0.251-5.678,6.332-5.678h-5.583c0,0-0.751-0.011-0.751,1
		S51.168,6.583,51.168,6.583z"/>
	<path opacity="0.6" fill="#4D4C4C" d="M69.302,7.553c0,0,0.252,5.678-6.332,5.678h5.584c0,0,0.75,0.011,0.75-1
		S69.302,7.553,69.302,7.553z"/>
	<path opacity="0.6" fill="#4D4C4C" d="M49.114,7.553c0,0,0.252,5.678-6.332,5.678h5.584c0,0,0.75,0.011,0.75-1
		S49.114,7.553,49.114,7.553z"/>
	<path opacity="0.6" fill="#4D4C4C" d="M19.114,7.553c0,0,0.252,5.678-6.332,5.678h5.584c0,0,0.75,0.011,0.75-1
		S19.114,7.553,19.114,7.553z"/>
	<path opacity="0.6" fill="#4D4C4C" d="M14.177,21.491c0,0,0.252,5.678-6.332,5.678h5.584c0,0,0.75,0.011,0.75-1
		S14.177,21.491,14.177,21.491z"/>
	<path opacity="0.6" fill="#4D4C4C" d="M44.331,21.491c0,0,0.252,5.678-6.332,5.678h5.584c0,0,0.75,0.011,0.75-1
		S44.331,21.491,44.331,21.491z"/>
	<path opacity="0.6" fill="#4D4C4C" d="M69.302,21.254c0,0,0.252,5.678-6.332,5.678h5.584c0,0,0.75,0.011,0.75-1
		S69.302,21.254,69.302,21.254z"/>
	<path opacity="0.6" fill="#4D4C4C" d="M69.302,35.421c0,0,0.252,5.678-6.332,5.678h5.584c0,0,0.75,0.01,0.75-1
		C69.304,39.088,69.302,35.421,69.302,35.421z"/>
	<path opacity="0.6" fill="#4D4C4C" d="M39.177,35.421c0,0,0.252,5.678-6.332,5.678h5.584c0,0,0.75,0.01,0.75-1
		C39.179,39.088,39.177,35.421,39.177,35.421z"/>
	<path opacity="0.6" fill="#4D4C4C" d="M24.248,35.421c0,0,0.252,5.678-6.332,5.678H23.5c0,0,0.75,0.01,0.75-1
		C24.25,39.088,24.248,35.421,24.248,35.421z"/>
	<path opacity="0.6" fill="#4D4C4C" d="M19.249,49.547c0,0,0.252,5.678-6.332,5.678H18.5c0,0,0.75,0.01,0.75-1
		C19.25,53.213,19.249,49.547,19.249,49.547z"/>
	<path opacity="0.6" fill="#4D4C4C" d="M49.416,49.547c0,0,0.252,5.678-6.332,5.678h5.584c0,0,0.75,0.01,0.75-1
		C49.418,53.213,49.416,49.547,49.416,49.547z"/>
	<path opacity="0.6" fill="#4D4C4C" d="M69.302,49.547c0,0,0.252,5.678-6.332,5.678h5.584c0,0,0.75,0.01,0.75-1
		C69.304,53.213,69.302,49.547,69.302,49.547z"/>
	<path opacity="0.6" fill="#4D4C4C" d="M69.302,63.255c0,0,0.252,5.678-6.332,5.678h5.584c0,0,0.75,0.01,0.75-1
		C69.304,66.921,69.302,63.255,69.302,63.255z"/>
	<path opacity="0.6" fill="#4D4C4C" d="M44.114,63.255c0,0,0.252,5.678-6.332,5.678h5.584c0,0,0.75,0.01,0.75-1
		C44.116,66.921,44.114,63.255,44.114,63.255z"/>
	<path opacity="0.6" fill="#4D4C4C" d="M14.302,63.505c0,0,0.252,5.678-6.332,5.678h5.584c0,0,0.75,0.01,0.75-1
		C14.304,67.171,14.302,63.505,14.302,63.505z"/>
	<path opacity="0.6" fill="#A0A09F" d="M1.168,20.583c0,0-0.251-5.678,6.332-5.678H1.917c0,0-0.751-0.011-0.751,1
		S1.168,20.583,1.168,20.583z"/>
	<path opacity="0.6" fill="#A0A09F" d="M16.418,21c0,0-0.251-5.678,6.332-5.678h-5.583c0,0-0.751-0.011-0.751,1S16.418,21,16.418,21
		z"/>
	<path opacity="0.6" fill="#A0A09F" d="M46.252,21c0,0-0.252-5.678,6.332-5.678H47c0,0-0.75-0.011-0.75,1S46.252,21,46.252,21z"/>
	<path opacity="0.6" fill="#A0A09F" d="M41.169,34.651c0,0-0.252-5.678,6.332-5.678h-5.584c0,0-0.75-0.011-0.75,1
		S41.169,34.651,41.169,34.651z"/>
	<path opacity="0.6" fill="#A0A09F" d="M26.168,34.651c0,0-0.252-5.678,6.332-5.678h-5.584c0,0-0.75-0.011-0.75,1
		S26.168,34.651,26.168,34.651z"/>
	<path opacity="0.6" fill="#A0A09F" d="M1.168,34.979c0,0-0.252-5.678,6.332-5.678H1.916c0,0-0.75-0.011-0.75,1
		S1.168,34.979,1.168,34.979z"/>
	<path opacity="0.6" fill="#A0A09F" d="M0.835,48.65c0,0-0.252-5.678,6.332-5.678H1.583c0,0-0.75-0.011-0.75,1
		S0.835,48.65,0.835,48.65z"/>
	<path opacity="0.6" fill="#A0A09F" d="M21.085,49.001c0,0-0.252-5.678,6.332-5.678h-5.584c0,0-0.75-0.011-0.75,1
		S21.085,49.001,21.085,49.001z"/>
	<path opacity="0.6" fill="#A0A09F" d="M50.837,48.623c0,0-0.252-5.678,6.332-5.678h-5.584c0,0-0.75-0.011-0.75,1
		S50.837,48.623,50.837,48.623z"/>
	<path opacity="0.6" fill="#A0A09F" d="M46.252,63.001c0,0-0.252-5.678,6.332-5.678H47c0,0-0.75-0.011-0.75,1
		S46.252,63.001,46.252,63.001z"/>
	<path opacity="0.6" fill="#A0A09F" d="M16.085,62.65c0,0-0.252-5.678,6.332-5.678h-5.584c0,0-0.75-0.011-0.75,1
		S16.085,62.65,16.085,62.65z"/>
	<path opacity="0.6" fill="#A0A09F" d="M0.835,62.65c0,0-0.252-5.678,6.332-5.678H1.583c0,0-0.75-0.011-0.75,1
		S0.835,62.65,0.835,62.65z"/>
	<g opacity="0.6">
		<path fill="none" stroke="#2D2D2D" stroke-width="0.25" stroke-miterlimit="10" d="M13.817,2.814
			c-0.728,0.465-0.882-0.139-1.081-0.525c-0.196-0.387-1.012-0.057-1.199,0.019c-0.187,0.073-0.751,2.093-0.812,1.237
			C10.653,2.521,9.47,3.869,9.47,3.869"/>
		<path fill="none" stroke="#2D2D2D" stroke-width="0.25" stroke-miterlimit="10" d="M8.455,0.004
			c0.368-0.375,0.109,1.08,0.362,0.966c0.251-0.114,1.283-0.232,0.99,0.103C9.515,1.408,9.715,2.305,10.34,2.047
			c0.627-0.262,1.197,0.261,1.197,0.261"/>
	</g>
	<g opacity="0.6">
		<path fill="none" stroke="#2D2D2D" stroke-width="0.25" stroke-miterlimit="10" d="M56.522,27.792
			c0.062,0.861-0.543,0.708-0.978,0.699c-0.434-0.013-0.533,0.861-0.557,1.062c-0.025,0.199,1.479,1.66,0.699,1.304
			c-0.934-0.425-0.315,1.258-0.315,1.258"/>
		<path fill="none" stroke="#2D2D2D" stroke-width="0.25" stroke-miterlimit="10" d="M51.492,31.159
			c-0.154-0.503,1.001,0.42,1.021,0.143c0.02-0.275,0.408-1.238,0.563-0.821c0.155,0.418,1.039,0.67,1.11-0.002
			c0.07-0.676,0.802-0.927,0.802-0.927"/>
	</g>
	<g opacity="0.6">
		<path fill="none" stroke="#2D2D2D" stroke-width="0.25" stroke-miterlimit="10" d="M16.323,42.335
			c0.212,1.042-0.509,0.742-1.016,0.648c-0.503-0.096-0.473,0.931-0.468,1.164c0.006,0.234,1.535,1.45,1.596,1.969
			c0.064,0.519-0.355,1.27-0.355,1.27"/>
		<path fill="none" stroke="#2D2D2D" stroke-width="0.25" stroke-miterlimit="10" d="M11.917,47.737
			c-0.26-0.627,0.159-2.45,0.137-2.781c-0.023-0.325,0.484-0.593,0.73-0.063c0.248,0.53,1.315,1.003,1.284,0.21
			c-0.032-0.795,0.772-0.955,0.772-0.955"/>
	</g>
	<g opacity="0.6">
		<path fill="none" stroke="#2D2D2D" stroke-width="0.25" stroke-miterlimit="10" d="M61.55,61.769
			c-1.06-0.094-0.567-0.7-0.334-1.158c0.236-0.456-0.757-0.718-0.981-0.78c-0.227-0.062-1.828,1.059-2.342,0.97
			c-0.515-0.086-1.116-0.703-1.116-0.703"/>
		<path fill="none" stroke="#2D2D2D" stroke-width="0.25" stroke-miterlimit="10" d="M57.624,56.006
			c0.676-0.071,2.304,0.851,2.628,0.923c0.318,0.071,0.431,0.632-0.146,0.718c-0.579,0.087-1.337,0.977-0.566,1.172
			c0.771,0.194,0.695,1.012,0.695,1.012"/>
	</g>
</g>
<g id="Calque_3">
	<path opacity="0.6" fill="#3B5E2A" stroke="#20441E" stroke-width="0.25" stroke-miterlimit="10" d="M18.021,13.35l-0.267,0.031
		l0.036-0.267l-0.185,0.196l-0.144-0.228l-0.016,0.269l-0.256-0.082l0.052,0.071l-0.109,0.183l-0.161-0.161l0.037,0.225
		l-0.228-0.021l0.173,0.149l-0.188,0.131l0.228,0.003l-0.03,0.113l-0.336-0.061l0.153-0.335l-0.254,0.146l-0.079-0.007l-0.086-0.311
		l-0.108,0.292l-0.113-0.01l-0.06-0.042l0.156-0.44l-0.415,0.287l-0.174-0.465l0.306,0.111l-0.29-0.427l0.485-0.175l-0.497-0.142
		l0.259-0.446l-0.472,0.211l-0.088-0.509l-0.225,0.464l-0.395-0.333l0.126,0.501l-0.516-0.001l0.418,0.303l-0.18,0.15l-0.235,0.061
		l-0.002-0.354l-0.205,0.289l-0.229-0.27l0.029,0.353l-0.124-0.021v-0.005l-0.003,0.004l-0.222-0.038l0.145,0.146l-0.121,0.17
		l-0.225-0.265l0.028,0.346l-0.28-0.047l-0.01-0.054l-0.022,0.048l-0.031-0.005l0.022,0.022l-0.166,0.348l-0.352-0.292l0.115,0.442
		l-0.458,0.003l0.373,0.265l-0.349,0.296l0.456-0.037l-0.069,0.408l-0.034-0.187l-0.145,0.306l-0.261-0.216l0.085,0.328
		l-0.339,0.002l0.276,0.196l-0.258,0.219l0.337-0.027l-0.015,0.086l-0.052,0.015l0.046,0.018l-0.037,0.215l0.17-0.167l0.142,0.05
		l0.042,0.072l-0.204,0.302l0.393-0.145l0.044,0.416l0.208-0.363l0.302,0.291l-0.018-0.097l0.031,0.12l-0.366,0.002l0.298,0.212
		l-0.279,0.237l0.365-0.029l-0.062,0.36l0.261-0.257l0.185,0.316l0.035-0.364l0.345,0.123l-0.208-0.301l0.343-0.127l-0.085-0.023
		l0.116-0.023l-0.026,0.523l0.036-0.045l0.519,0.116l-0.249,0.493l0.49-0.254l0.126,0.539l0.212-0.51l0.442,0.331l-0.165-0.527
		l0.552-0.03l-0.465-0.298l0.301-0.283l-0.023,0.138l0.353-0.348l0.25,0.428l0.047-0.494l0.467,0.167l-0.281-0.408l0.465-0.173
		l-0.478-0.131l0.245-0.431l-0.451,0.207l-0.088-0.488l-0.213,0.448l-0.382-0.316l0.125,0.479l-0.414,0.002l-0.124-0.128
		l0.374,0.123l-0.197-0.271l0.108-0.062l-0.167-0.019l-0.133-0.183l0.017-0.044l0.275-0.11l0.179,0.21l-0.023-0.272L16.1,14.44
		l-0.018,0.227l0.238-0.282l0.214,0.3l0.001-0.369l0.357,0.092l-0.236-0.283l0.301-0.144l-0.023,0.087l0.176-0.145l0.096,0.207
		l0.043-0.224l0.207,0.097l-0.099-0.177l0.11-0.055l0.01-0.002l0.057,0.261l0.107-0.247l0.213,0.165l-0.077-0.258l0.269-0.011
		l-0.224-0.148L18.021,13.35z M14.042,15.757l-0.27,0.123l-0.055-0.3l0.22,0.12l-0.012,0.1l0.066-0.071L14.042,15.757z
		 M14.067,13.369l-0.031-0.015l0.021-0.014L14.067,13.369z M15.069,13.258l-0.006-0.06l0.207,0.031l-0.15-0.146l0.057-0.035
		l0.22,0.382l-0.323-0.183l0.211,0.458l-0.11,0.021l-0.101-0.478L15.069,13.258z M14.525,12.893l0.191-0.014l0.048,0.1l-0.196,0.04
		l-0.106-0.051L14.525,12.893z M14.824,12.871l0.04-0.002l-0.005,0.021L14.824,12.871z M14.019,15.012l0.042,0.108l-0.114-0.086
		l0.012-0.052l0.118-0.013l0.046,0.024l-0.028,0.068L14.019,15.012z M13.559,13.742l-0.01-0.003l-0.045-0.049l0.029-0.021
		L13.559,13.742z M14.418,15.043l-0.053-0.106l0.128-0.013l-0.03,0.208l-0.024-0.049l0.035-0.069L14.418,15.043z M14.209,15.038
		l0.109,0.057l-0.086,0.044L14.209,15.038z M13.686,13.875l0.083-0.031l-0.052,0.08l-0.035-0.038L13.686,13.875z M13.915,15.167
		l0.016,0.053l-0.029,0.001L13.915,15.167z M13.888,15.381l-0.031,0.029l0.01-0.043L13.888,15.381z M13.958,15.531L13.958,15.531
		l-0.244,0.031l0,0L13.958,15.531z M14.409,15.142l0.049,0.026l-0.016,0.109l-0.019-0.004l-0.061-0.039L14.409,15.142z
		 M14.876,15.112l0.007,0.011l-0.115,0.136l-0.008-0.026L14.876,15.112z M15.025,15.51L15.025,15.51L15.025,15.51L15.025,15.51z
		 M14.437,14.123l-0.031,0.001l0.023-0.029L14.437,14.123z M13.794,13.806l-0.083-0.023l0.034-0.123l0.106,0.06L13.794,13.806z
		 M13.937,13.59l-0.034-0.074l0.094-0.017L13.937,13.59z M13.24,14.392l-0.022,0.015l0.003-0.032L13.24,14.392z M13.286,14.734
		l-0.209,0.177l-0.013-0.004l-0.093-0.192L13.286,14.734z M12.813,14.838l0.032-0.055l-0.011,0.061L12.813,14.838z M13.62,14.943
		l0.045,0.109l-0.192,0L13.62,14.943z M13.674,15.075l0.064,0.155l-0.078,0.004l0.108,0.07l0.056,0.136l-0.113,0.105l-0.004-0.025
		l-0.02,0.042l-0.319-0.265L13.674,15.075z M15.123,15.508l0.011,0.018l-0.021-0.003L15.123,15.508z M15.266,15.385l0.152,0.183
		l-0.163-0.024L15.266,15.385z M15.644,13.014l-0.131,0.481l-0.094-0.054l0.05-0.492L15.644,13.014z M14.733,13.129l-0.112,0.142
		l0.196-0.056l-0.028,0.161l0.037-0.036l0.002,0.083l0.118-0.174l0.085,0.096l-0.147,0.333l-0.042-0.169l-0.104,0.259l-0.062-0.044
		l-0.061-0.088l0.114-0.042l-0.117-0.032l0.06-0.105l-0.094,0.042l-0.03-0.064l-0.009-0.047l-0.006,0.014l-0.1-0.219L14.733,13.129z
		 M14.56,13.493l0.015,0.008l-0.012,0.005L14.56,13.493z M14.505,13.462l-0.016,0.035l-0.094-0.077l0.03,0.117h-0.074l-0.107-0.083
		l0.124,0.43l-0.048,0.002l0.058,0.037l-0.318,0.095l-0.022-0.527l0.071-0.013l0.071,0.193l0.06-0.217l0.005-0.001l-0.004-0.002
		l0.033-0.121L14.505,13.462z M13.837,12.995l-0.022,0.013l0-0.035L13.837,12.995z M13.316,13.331l-0.125,0.073l-0.045-0.244
		L13.316,13.331z M12.651,14.569l0.313-0.309l0.13,0.224l-0.127,0.082l0.012-0.021l-0.076,0.034l-0.018-0.037l-0.009,0.049
		l-0.205,0.094L12.651,14.569z M13.29,15.636l-0.018-0.099l0.414,0.029l-0.136,0.286L13.29,15.636z M13.935,16.049l-0.01-0.003
		l0.153-0.27l0.073,0.04L13.935,16.049z M14.334,16.555l0.275-0.344l0.13,0.171L14.334,16.555z M16.096,16.066l-0.461,0.06
		l0.021-0.17l0.028,0.048l0.009-0.094l0.088,0.032l-0.054-0.077l0.088-0.032l-0.018-0.005l0.344-0.028L16.096,16.066z
		 M15.763,15.742l0.009-0.015l-0.085,0.039l-0.005-0.026l0.02-0.162l-0.125,0.136l-0.019-0.016l0.007,0.028l-0.059,0.063h-0.019
		l0.012,0.008l-0.172,0.187l-0.14-0.214l0.279-0.144l0.004,0.003l0-0.005l0.074-0.039l-0.078-0.011l-0.021-0.307l0.307,0.056
		l0.273,0.194L15.763,15.742z M16.003,14.357L16,14.318l0.111-0.019l-0.006,0.083L16.003,14.357z M17.349,13.485l-0.083,0.034
		l-0.014-0.166L17.349,13.485z M17.353,13.666l0.002-0.004L17.353,13.666L17.353,13.666z"/>
	<path opacity="0.6" fill="#3B5E2A" stroke="#20441E" stroke-width="0.25" stroke-miterlimit="10" d="M49.632,52.202l0.031,0.268
		l-0.268-0.035l0.196,0.185l-0.228,0.144l0.269,0.017l-0.082,0.256l0.071-0.052l0.182,0.109l-0.16,0.16l0.225-0.036l-0.021,0.228
		l0.149-0.173l0.131,0.188l0.003-0.228l0.113,0.029l-0.062,0.336l-0.335-0.152l0.146,0.254l-0.008,0.078l-0.311,0.086l0.293,0.108
		l-0.01,0.112l-0.042,0.061l-0.44-0.156l0.287,0.415l-0.465,0.174l0.111-0.306l-0.427,0.289l-0.175-0.485l-0.143,0.497l-0.445-0.26
		l0.211,0.472l-0.51,0.089l0.465,0.225l-0.332,0.395l0.5-0.126l-0.001,0.517l0.303-0.418l0.15,0.18l0.062,0.234l-0.354,0.002
		l0.288,0.205l-0.27,0.23l0.354-0.029l-0.021,0.124h-0.005l0.005,0.003l-0.038,0.223l0.146-0.145l0.17,0.121l-0.265,0.225
		l0.346-0.028l-0.047,0.28l-0.054,0.01l0.048,0.022l-0.005,0.03l0.022-0.021l0.348,0.165l-0.291,0.353l0.441-0.115l0.003,0.457
		l0.265-0.373l0.297,0.349l-0.037-0.456l0.408,0.07l-0.188,0.033l0.307,0.146l-0.217,0.261l0.328-0.086l0.002,0.34l0.196-0.276
		l0.22,0.258l-0.027-0.337l0.086,0.015l0.015,0.052l0.018-0.047l0.216,0.037l-0.168-0.17l0.051-0.143l0.071-0.041l0.302,0.203
		l-0.145-0.393l0.416-0.044l-0.363-0.208l0.291-0.301l-0.098,0.018l0.12-0.031l0.002,0.365l0.212-0.299l0.237,0.279l-0.029-0.365
		l0.36,0.063l-0.257-0.261l0.315-0.185l-0.363-0.035l0.123-0.344l-0.302,0.207l-0.127-0.343l-0.023,0.085l-0.023-0.116l0.523,0.026
		l-0.046-0.037l0.117-0.519l0.492,0.249l-0.254-0.49l0.538-0.126l-0.511-0.212l0.332-0.442l-0.527,0.165l-0.031-0.552l-0.297,0.466
		l-0.283-0.302l0.139,0.023l-0.348-0.353l0.428-0.25l-0.494-0.047l0.167-0.467l-0.407,0.281l-0.174-0.465l-0.131,0.477l-0.431-0.244
		l0.206,0.451l-0.488,0.088l0.448,0.213l-0.315,0.382l0.479-0.125l0.003,0.414l-0.128,0.124l0.123-0.375l-0.271,0.197l-0.062-0.108
		l-0.019,0.167l-0.184,0.133l-0.043-0.016l-0.111-0.275l0.211-0.18l-0.273,0.023l-0.035-0.088l0.228,0.018l-0.282-0.237l0.301-0.214
		l-0.369-0.002l0.092-0.357l-0.283,0.236l-0.143-0.301l0.087,0.023l-0.145-0.177l0.207-0.097l-0.224-0.043l0.097-0.206l-0.177,0.099
		l-0.056-0.109l-0.003-0.011l0.262-0.058l-0.248-0.106l0.165-0.214l-0.258,0.078l-0.011-0.27l-0.148,0.225L49.632,52.202z
		 M52.04,56.182l0.123,0.271l-0.301,0.055l0.121-0.221l0.1,0.013l-0.072-0.065L52.04,56.182z M49.651,56.157l-0.016,0.031
		l-0.014-0.021L49.651,56.157z M49.54,55.155l-0.061,0.006l0.031-0.207l-0.146,0.149l-0.034-0.057l0.382-0.22l-0.183,0.322
		l0.458-0.211l0.02,0.111l-0.478,0.1L49.54,55.155z M49.175,55.698l-0.014-0.191l0.1-0.048l0.04,0.196l-0.051,0.105L49.175,55.698z
		 M49.153,55.4l-0.003-0.04l0.021,0.006L49.153,55.4z M51.294,56.206l0.107-0.043l-0.086,0.114l-0.053-0.012l-0.012-0.118
		l0.023-0.046l0.068,0.028L51.294,56.206z M50.024,56.665l-0.004,0.011l-0.049,0.046l-0.021-0.029L50.024,56.665z M51.325,55.806
		l-0.105,0.054l-0.014-0.128l0.209,0.029l-0.049,0.025l-0.069-0.035L51.325,55.806z M51.319,56.015l0.058-0.109l0.044,0.086
		L51.319,56.015z M50.157,56.538l-0.031-0.083l0.08,0.052l-0.038,0.035L50.157,56.538z M51.45,56.31l0.053-0.016v0.028L51.45,56.31z
		 M51.663,56.336l0.029,0.03l-0.043-0.01L51.663,56.336z M51.813,56.266L51.813,56.266l0.031,0.243l0,0L51.813,56.266z
		 M51.424,55.815l0.026-0.049l0.108,0.016l-0.004,0.02l-0.038,0.061L51.424,55.815z M51.394,55.348l0.012-0.007l0.136,0.115
		l-0.026,0.008L51.394,55.348z M51.792,55.199L51.792,55.199L51.792,55.199L51.792,55.199z M50.405,55.787v0.03l-0.029-0.022
		L50.405,55.787z M50.089,56.431l-0.023,0.082l-0.123-0.033l0.061-0.106L50.089,56.431z M49.872,56.288l-0.074,0.033l-0.018-0.094
		L49.872,56.288z M50.675,56.983l0.014,0.022l-0.031-0.003L50.675,56.983z M51.017,56.938l0.178,0.209L51.19,57.16l-0.192,0.093
		L51.017,56.938z M51.12,57.411l-0.055-0.031l0.061,0.011L51.12,57.411z M51.226,56.604l0.108-0.045l0.001,0.191L51.226,56.604z
		 M51.357,56.55l0.155-0.064l0.004,0.078l0.07-0.107l0.135-0.057l0.105,0.113l-0.024,0.004l0.042,0.021l-0.265,0.319L51.357,56.55z
		 M51.79,55.101l0.018-0.01l-0.003,0.02L51.79,55.101z M51.667,54.958l0.184-0.152l-0.024,0.164L51.667,54.958z M49.296,54.58
		l0.481,0.132l-0.054,0.094l-0.492-0.051L49.296,54.58z M49.411,55.491l0.142,0.111l-0.056-0.195l0.16,0.027l-0.035-0.036
		l0.083-0.002l-0.174-0.118l0.097-0.085l0.332,0.147l-0.168,0.042l0.258,0.104l-0.044,0.062l-0.088,0.061l-0.042-0.113l-0.032,0.116
		l-0.104-0.06l0.042,0.094l-0.063,0.029l-0.048,0.009l0.015,0.007l-0.219,0.1L49.411,55.491z M49.775,55.664l0.009-0.015
		l0.005,0.012L49.775,55.664z M49.745,55.719l0.034,0.017l-0.077,0.094l0.117-0.031v0.074l-0.084,0.107l0.431-0.124l0.003,0.048
		l0.036-0.058l0.095,0.318l-0.527,0.022l-0.012-0.07l0.193-0.072l-0.217-0.06l-0.002-0.005l-0.002,0.004l-0.121-0.033L49.745,55.719
		z M49.277,56.387l0.013,0.022h-0.035L49.277,56.387z M49.612,56.907l0.073,0.125l-0.244,0.045L49.612,56.907z M50.852,57.573
		l-0.309-0.313l0.224-0.13l0.082,0.127l-0.021-0.013l0.033,0.076l-0.037,0.019l0.05,0.008l0.095,0.205L50.852,57.573z
		 M51.918,56.935l-0.099,0.018l0.028-0.414l0.286,0.137L51.918,56.935z M52.331,56.29l-0.002,0.01l-0.271-0.153l0.04-0.073
		L52.331,56.29z M52.837,55.89l-0.344-0.275l0.171-0.129L52.837,55.89z M52.349,54.128l0.061,0.461l-0.171-0.021l0.048-0.028
		l-0.094-0.008l0.031-0.089l-0.076,0.054l-0.032-0.088l-0.005,0.018l-0.027-0.344L52.349,54.128z M52.024,54.462l-0.016-0.01
		l0.039,0.086l-0.025,0.004l-0.162-0.02l0.136,0.125l-0.016,0.02l0.028-0.008l0.063,0.059v0.02l0.008-0.012l0.188,0.172l-0.214,0.14
		l-0.144-0.278l0.004-0.004h-0.006l-0.038-0.074l-0.011,0.078l-0.307,0.021l0.055-0.308l0.194-0.272L52.024,54.462z M50.64,54.222
		l-0.039,0.003l-0.02-0.111l0.084,0.007L50.64,54.222z M49.768,52.875l0.034,0.083l-0.166,0.015L49.768,52.875z M49.948,52.871
		l-0.004-0.003L49.948,52.871L49.948,52.871z"/>
</g>
</svg>
