<?xml version="1.0" encoding="utf-8"?>
<!-- Generator: Adobe Illustrator 16.0.0, SVG Export Plug-In . SVG Version: 6.00 Build 0)  -->
<!DOCTYPE svg PUBLIC "-//W3C//DTD SVG 1.1//EN" "http://www.w3.org/Graphics/SVG/1.1/DTD/svg11.dtd">
<svg version="1.1" id="Calque_1" xmlns="http://www.w3.org/2000/svg" xmlns:xlink="http://www.w3.org/1999/xlink" x="0px" y="0px"
	 width="70px" height="70px" viewBox="0 0 70 70" enable-background="new 0 0 70 70" xml:space="preserve">
<path fill="#5C5C5C" stroke="#2D2D2D" stroke-miterlimit="10" d="M70,34c0,0.552-0.447,1-1,1h-3c-0.553,0-1-0.448-1-1V1
	c0-0.552,0.447-1,1-1h3c0.553,0,1,0.448,1,1V34z"/>
<path fill="#5C5C5C" stroke="#2D2D2D" stroke-miterlimit="10" d="M70,69c0,0.552-0.447,1-1,1h-3c-0.553,0-1-0.448-1-1V36
	c0-0.552,0.447-1,1-1h3c0.553,0,1,0.448,1,1V69z"/>
<path fill="#5C5C5C" stroke="#2D2D2D" stroke-miterlimit="10" d="M65,29c0,0.552-0.447,1-1,1h-8c-0.553,0-1-0.448-1-1V1
	c0-0.553,0.447-1,1-1h8c0.553,0,1,0.447,1,1V29z"/>
<path fill="#5C5C5C" stroke="#2D2D2D" stroke-miterlimit="10" d="M65,69c0,0.553-0.447,1-1,1h-8c-0.553,0-1-0.447-1-1V31
	c0-0.552,0.447-1,1-1h8c0.553,0,1,0.448,1,1V69z"/>
<path fill="#5C5C5C" stroke="#2D2D2D" stroke-miterlimit="10" d="M55,69c0,0.553-0.448,1-1,1H41c-0.553,0-1-0.447-1-1V41
	c0-0.553,0.447-1,1-1h13c0.552,0,1,0.447,1,1V69z"/>
<path fill="#5C5C5C" stroke="#2D2D2D" stroke-miterlimit="10" d="M55,39c0,0.553-0.447,1-1,1H41c-0.553,0-1-0.447-1-1V1
	c0-0.552,0.447-1,1-1h13c0.553,0,1,0.448,1,1V39z"/>
<path fill="#7A7A7A" stroke="#2D2D2D" stroke-miterlimit="10" d="M40,69c0,0.553-0.225,1-0.5,1H33c-0.276,0-0.5-0.447-0.5-1V1
	c0-0.552,0.224-1,0.5-1h6.5C39.775,0,40,0.447,40,1V69z"/>
<rect fill="#151614" width="32.5" height="70"/>
</svg>
