<?xml version="1.0" encoding="utf-8"?>
<!-- Generator: Adobe Illustrator 16.0.0, SVG Export Plug-In . SVG Version: 6.00 Build 0)  -->
<!DOCTYPE svg PUBLIC "-//W3C//DTD SVG 1.1//EN" "http://www.w3.org/Graphics/SVG/1.1/DTD/svg11.dtd">
<svg version="1.1" id="Calque_1" xmlns="http://www.w3.org/2000/svg" xmlns:xlink="http://www.w3.org/1999/xlink" x="0px" y="0px"
	 width="70px" height="70px" viewBox="0 0 70 70" enable-background="new 0 0 70 70" xml:space="preserve">
<path fill="#5C5C5C" stroke="#2D2D2D" stroke-miterlimit="10" d="M55,39.384C55,39.725,54.553,40,54,40H41c-0.553,0-1-0.275-1-0.616
	V15.95c0-0.341,0.447-0.617,1-0.617h13c0.553,0,1,0.276,1,0.617V39.384z"/>
<path fill="#5C5C5C" stroke="#2D2D2D" stroke-miterlimit="10" d="M70,34.143C70,34.616,69.553,35,69,35h-3c-0.553,0-1-0.384-1-0.857
	V5.856C65,5.383,65.447,5,66,5h3c0.553,0,1,0.384,1,0.857V34.143z"/>
<path fill="#5C5C5C" stroke="#2D2D2D" stroke-miterlimit="10" d="M70,69c0,0.552-0.447,1-1,1h-3c-0.553,0-1-0.448-1-1V36
	c0-0.552,0.447-1,1-1h3c0.553,0,1,0.448,1,1V69z"/>
<path fill="#5C5C5C" stroke="#2D2D2D" stroke-miterlimit="10" d="M65,29.166C65,29.626,64.553,30,64,30h-8c-0.553,0-1-0.374-1-0.833
	V5.833C55,5.372,55.447,5,56,5h8c0.553,0,1,0.373,1,0.833V29.166z"/>
<path fill="#5C5C5C" stroke="#2D2D2D" stroke-miterlimit="10" d="M65,69c0,0.553-0.447,1-1,1h-8c-0.553,0-1-0.447-1-1V31
	c0-0.552,0.447-1,1-1h8c0.553,0,1,0.448,1,1V69z"/>
<path fill="#5C5C5C" stroke="#2D2D2D" stroke-miterlimit="10" d="M55,69c0,0.553-0.448,1-1,1H41c-0.553,0-1-0.447-1-1V41
	c0-0.553,0.447-1,1-1h13c0.552,0,1,0.447,1,1V69z"/>
<path fill="#7A7A7A" stroke="#2D2D2D" stroke-miterlimit="10" d="M40,69.536C40,69.792,39.775,70,39.5,70H33
	c-0.276,0-0.5-0.208-0.5-0.464V37.964c0-0.256,0.224-0.464,0.5-0.464h6.5c0.275,0,0.5,0.208,0.5,0.464V69.536z"/>
<rect fill="#151614" width="32.5" height="70"/>
<path fill="#5C5C5C" stroke="#2D2D2D" stroke-miterlimit="10" d="M34,0c0.552,0,1,0.447,1,1v3c0,0.553-0.448,1-1,1L1,5
	C0.448,5,0,4.553,0,4V1c0-0.553,0.448-1,1-1L34,0z"/>
<path fill="#5C5C5C" stroke="#2D2D2D" stroke-miterlimit="10" d="M69,0c0.552,0,1,0.447,1,1v3c0,0.553-0.448,1-1,1H36
	c-0.553,0-1-0.447-1-1V1c0-0.553,0.447-1,1-1H69z"/>
<path fill="#5C5C5C" stroke="#2D2D2D" stroke-miterlimit="10" d="M29,5c0.551,0,1,0.447,1,1v8c0,0.553-0.449,1-1,1H1
	c-0.553,0-1-0.447-1-1V6c0-0.553,0.447-1,1-1H29z"/>
<path fill="#5C5C5C" stroke="#2D2D2D" stroke-miterlimit="10" d="M54.375,5C54.721,5,55,5.447,55,6v8c0,0.553-0.279,1-0.625,1
	h-23.75C30.279,15,30,14.553,30,14V6c0-0.553,0.279-1,0.625-1H54.375z"/>
<path fill="#5C5C5C" stroke="#2D2D2D" stroke-miterlimit="10" d="M39,15c0.553,0,1,0.447,1,1v13c0,0.553-0.447,1-1,1H1
	c-0.552,0-1-0.447-1-1V16c0-0.553,0.448-1,1-1H39z"/>
<path fill="#7A7A7A" stroke="#2D2D2D" stroke-miterlimit="10" d="M39.429,30C39.744,30,40,30.225,40,30.5V37
	c0,0.276-0.256,0.5-0.571,0.5H0.571C0.256,37.5,0,37.276,0,37v-6.5C0,30.225,0.256,30,0.571,30H39.429z"/>
</svg>
