<?xml version="1.0" encoding="utf-8"?>
<!-- Generator: Adobe Illustrator 16.0.0, SVG Export Plug-In . SVG Version: 6.00 Build 0)  -->
<!DOCTYPE svg PUBLIC "-//W3C//DTD SVG 1.1//EN" "http://www.w3.org/Graphics/SVG/1.1/DTD/svg11.dtd">
<svg version="1.1" xmlns="http://www.w3.org/2000/svg" xmlns:xlink="http://www.w3.org/1999/xlink" x="0px" y="0px" width="70px"
	 height="70px" viewBox="0 0 70 70" enable-background="new 0 0 70 70" xml:space="preserve">
<g id="Calque_1">
	<path fill="#5C5C5C" stroke="#2D2D2D" stroke-miterlimit="10" d="M0,34c0,0.552,0.447,1,1,1h3c0.553,0,1-0.448,1-1V1
		c0-0.552-0.447-1-1-1H1C0.447,0,0,0.447,0,1V34z"/>
	<path fill="#5C5C5C" stroke="#2D2D2D" stroke-miterlimit="10" d="M0,69c0,0.552,0.447,1,1,1h3c0.553,0,1-0.448,1-1V36
		c0-0.552-0.447-1-1-1H1c-0.553,0-1,0.448-1,1V69z"/>
	<path fill="#5C5C5C" stroke="#2D2D2D" stroke-miterlimit="10" d="M5,29c0,0.552,0.447,1,1,1h8c0.553,0,1-0.448,1-1V1
		c0-0.553-0.447-1-1-1H6C5.447,0,5,0.447,5,1V29z"/>
	<path fill="#5C5C5C" stroke="#2D2D2D" stroke-miterlimit="10" d="M5,69c0,0.553,0.447,1,1,1h8c0.553,0,1-0.447,1-1V31
		c0-0.552-0.447-1-1-1H6c-0.553,0-1,0.448-1,1V69z"/>
	<path fill="#5C5C5C" stroke="#2D2D2D" stroke-miterlimit="10" d="M15,69c0,0.553,0.448,1,1,1h13c0.553,0,1-0.447,1-1V41
		c0-0.553-0.447-1-1-1H16c-0.552,0-1,0.447-1,1V69z"/>
	<path fill="#5C5C5C" stroke="#2D2D2D" stroke-miterlimit="10" d="M15,39c0,0.553,0.447,1,1,1h13c0.553,0,1-0.447,1-1V1
		c0-0.552-0.447-1-1-1H16c-0.553,0-1,0.448-1,1V39z"/>
	<path fill="#7A7A7A" stroke="#2D2D2D" stroke-miterlimit="10" d="M30,69c0,0.553,0.225,1,0.5,1H37c0.276,0,0.5-0.447,0.5-1V1
		c0-0.552-0.224-1-0.5-1h-6.5C30.225,0,30,0.447,30,1V69z"/>
	<rect x="37.5" fill="#151614" width="32.5" height="70"/>
</g>
<g id="Calque_2">
	<g>
		<circle opacity="0.2" fill="#F8AA14" cx="16.589" cy="35" r="12.667"/>
		<path fill="#F8AA14" d="M16.568,33.182L16.568,33.182l3.049-2.536L22.709,35h1.547l-2.235,2.177L19.96,35l-1.374,4.354
			l-2.355-1.768c-0.577,1.068-1.498,1.768-2.54,1.768c-1.756,0-3.18-1.949-3.18-4.354s1.424-4.354,3.18-4.354
			C14.968,30.646,16.065,31.688,16.568,33.182z"/>
		<path fill="#D80F16" d="M13.385,34.356L13.385,34.356l1.079-0.898L15.559,35h0.548l-0.791,0.771L14.585,35L14.1,36.542
			l-0.834-0.626c-0.205,0.378-0.53,0.626-0.899,0.626c-0.622,0-1.126-0.69-1.126-1.542s0.504-1.542,1.126-1.542
			C12.818,33.458,13.207,33.827,13.385,34.356z"/>
		<g>
			<polygon fill="#543A1E" stroke="#3E2913" stroke-miterlimit="10" points="3.044,35 8.775,36.534 11.589,39.069 11.589,35 
				11.589,30.931 8.775,33.466 			"/>
			<path fill="#2E1D11" d="M10.739,37.839c0,0-1.343-2.1-0.912-4.73c0,0-0.966,0.428-1.14,1.892
				C8.688,35,8.688,36.026,10.739,37.839z"/>
			<polygon fill="#7F4D28" points="11.219,35 10.899,32.714 11.219,31.839 			"/>
		</g>
	</g>
</g>
</svg>
