<?xml version="1.0" encoding="utf-8"?>
<!-- Generator: Adobe Illustrator 16.0.0, SVG Export Plug-In . SVG Version: 6.00 Build 0)  -->
<!DOCTYPE svg PUBLIC "-//W3C//DTD SVG 1.1//EN" "http://www.w3.org/Graphics/SVG/1.1/DTD/svg11.dtd">
<svg version="1.1" xmlns="http://www.w3.org/2000/svg" xmlns:xlink="http://www.w3.org/1999/xlink" x="0px" y="0px" width="70px"
	 height="70px" viewBox="0 0 70 70" enable-background="new 0 0 70 70" xml:space="preserve">
<g id="Calque_1">
	<path fill="#5C5C5C" stroke="#2D2D2D" stroke-miterlimit="10" d="M70,34c0,0.552-0.447,1-1,1h-3c-0.553,0-1-0.448-1-1V1
		c0-0.552,0.447-1,1-1h3c0.553,0,1,0.448,1,1V34z"/>
	<path fill="#5C5C5C" stroke="#2D2D2D" stroke-miterlimit="10" d="M70,69c0,0.552-0.447,1-1,1h-3c-0.553,0-1-0.448-1-1V36
		c0-0.552,0.447-1,1-1h3c0.553,0,1,0.448,1,1V69z"/>
	<path fill="#5C5C5C" stroke="#2D2D2D" stroke-miterlimit="10" d="M65,29c0,0.552-0.447,1-1,1h-8c-0.553,0-1-0.448-1-1V1
		c0-0.553,0.447-1,1-1h8c0.553,0,1,0.447,1,1V29z"/>
	<path fill="#5C5C5C" stroke="#2D2D2D" stroke-miterlimit="10" d="M65,69c0,0.553-0.447,1-1,1h-8c-0.553,0-1-0.447-1-1V31
		c0-0.552,0.447-1,1-1h8c0.553,0,1,0.448,1,1V69z"/>
	<path fill="#5C5C5C" stroke="#2D2D2D" stroke-miterlimit="10" d="M55,69c0,0.553-0.448,1-1,1H41c-0.553,0-1-0.447-1-1V41
		c0-0.553,0.447-1,1-1h13c0.552,0,1,0.447,1,1V69z"/>
	<path fill="#5C5C5C" stroke="#2D2D2D" stroke-miterlimit="10" d="M55,39c0,0.553-0.447,1-1,1H41c-0.553,0-1-0.447-1-1V1
		c0-0.552,0.447-1,1-1h13c0.553,0,1,0.448,1,1V39z"/>
	<path fill="#7A7A7A" stroke="#2D2D2D" stroke-miterlimit="10" d="M40,69c0,0.553-0.225,1-0.5,1H33c-0.276,0-0.5-0.447-0.5-1V1
		c0-0.552,0.224-1,0.5-1h6.5C39.775,0,40,0.447,40,1V69z"/>
	<rect fill="#151614" width="32.5" height="70"/>
</g>
<g id="Calque_2">
	<g>
		<circle opacity="0.2" fill="#F8AA14" cx="53.411" cy="35" r="12.667"/>
		<path fill="#F8AA14" d="M53.432,33.182L53.432,33.182l-3.049-2.536L47.291,35h-1.547l2.235,2.177L50.04,35l1.374,4.354
			l2.355-1.768c0.577,1.068,1.498,1.768,2.54,1.768c1.756,0,3.18-1.949,3.18-4.354s-1.424-4.354-3.18-4.354
			C55.032,30.646,53.935,31.688,53.432,33.182z"/>
		<path fill="#D80F16" d="M56.615,34.356L56.615,34.356l-1.079-0.898L54.441,35h-0.548l0.791,0.771L55.415,35l0.485,1.542
			l0.834-0.626c0.205,0.378,0.53,0.626,0.899,0.626c0.622,0,1.126-0.69,1.126-1.542s-0.504-1.542-1.126-1.542
			C57.182,33.458,56.793,33.827,56.615,34.356z"/>
		<g>
			<polygon fill="#543A1E" stroke="#3E2913" stroke-miterlimit="10" points="66.956,35 61.225,36.534 58.411,39.069 58.411,35 
				58.411,30.931 61.225,33.466 			"/>
			<path fill="#2E1D11" d="M59.261,37.839c0,0,1.343-2.1,0.912-4.73c0,0,0.966,0.428,1.14,1.892
				C61.313,35,61.313,36.026,59.261,37.839z"/>
			<polygon fill="#7F4D28" points="58.781,35 59.101,32.714 58.781,31.839 			"/>
		</g>
	</g>
</g>
</svg>
