<?xml version="1.0" encoding="utf-8"?>
<!-- Generator: Adobe Illustrator 16.0.0, SVG Export Plug-In . SVG Version: 6.00 Build 0)  -->
<!DOCTYPE svg PUBLIC "-//W3C//DTD SVG 1.1//EN" "http://www.w3.org/Graphics/SVG/1.1/DTD/svg11.dtd">
<svg version="1.1" id="Calque_1" xmlns="http://www.w3.org/2000/svg" xmlns:xlink="http://www.w3.org/1999/xlink" x="0px" y="0px"
	 width="70px" height="70px" viewBox="0 0 70 70" enable-background="new 0 0 70 70" xml:space="preserve">
<path fill="#5C5C5C" stroke="#2D2D2D" stroke-miterlimit="10" d="M34,0c0.552,0,1,0.447,1,1v3c0,0.553-0.448,1-1,1H1
	C0.447,5,0,4.553,0,4V1c0-0.553,0.448-1,1-1H34z"/>
<path fill="#5C5C5C" stroke="#2D2D2D" stroke-miterlimit="10" d="M69,0c0.552,0,1,0.447,1,1v3c0,0.553-0.448,1-1,1H36
	c-0.552,0-1-0.447-1-1V1c0-0.553,0.448-1,1-1H69z"/>
<path fill="#5C5C5C" stroke="#2D2D2D" stroke-miterlimit="10" d="M29,5c0.552,0,1,0.447,1,1v8c0,0.553-0.448,1-1,1H1
	c-0.553,0-1-0.447-1-1V6c0-0.553,0.447-1,1-1H29z"/>
<path fill="#5C5C5C" stroke="#2D2D2D" stroke-miterlimit="10" d="M69,5c0.553,0,1,0.447,1,1v8c0,0.553-0.447,1-1,1H31
	c-0.552,0-1-0.447-1-1V6c0-0.553,0.448-1,1-1H69z"/>
<path fill="#5C5C5C" stroke="#2D2D2D" stroke-miterlimit="10" d="M69,15c0.553,0,1,0.448,1,1v13c0,0.553-0.447,1-1,1H41
	c-0.553,0-1-0.447-1-1V16c0-0.552,0.447-1,1-1H69z"/>
<path fill="#5C5C5C" stroke="#2D2D2D" stroke-miterlimit="10" d="M39,15c0.553,0,1,0.447,1,1v13c0,0.553-0.447,1-1,1H1
	c-0.552,0-1-0.447-1-1V16c0-0.553,0.448-1,1-1H39z"/>
<path fill="#7A7A7A" stroke="#2D2D2D" stroke-miterlimit="10" d="M69,30c0.553,0,1,0.225,1,0.5V37c0,0.276-0.447,0.5-1,0.5H1
	c-0.552,0-1-0.224-1-0.5v-6.5C0,30.225,0.447,30,1,30H69z"/>
<rect y="37.5" fill="#151614" width="70" height="32.5"/>
</svg>
