<?xml version="1.0" encoding="utf-8"?>
<!-- Generator: Adobe Illustrator 16.0.0, SVG Export Plug-In . SVG Version: 6.00 Build 0)  -->
<!DOCTYPE svg PUBLIC "-//W3C//DTD SVG 1.1//EN" "http://www.w3.org/Graphics/SVG/1.1/DTD/svg11.dtd">
<svg version="1.1" id="Calque_1" xmlns="http://www.w3.org/2000/svg" xmlns:xlink="http://www.w3.org/1999/xlink" x="0px" y="0px"
	 width="70px" height="70px" viewBox="0 0 70 70" enable-background="new 0 0 70 70" xml:space="preserve">
<rect y="0" fill="#1D1D1B" stroke="#2D2D2D" stroke-miterlimit="10" width="70" height="70"/>
<path fill="#5C5C5C" stroke="#2D2D2D" stroke-miterlimit="10" d="M1,70c-0.553,0-1-0.447-1-1V56c0-0.553,0.447-1,1-1h28
	c0.553,0,1,0.447,1,1v13c0,0.553-0.447,1-1,1H1z"/>
<path fill="#5C5C5C" stroke="#2D2D2D" stroke-miterlimit="10" d="M15.094,15c-0.42,0-0.761-0.447-0.761-1V1c0-0.553,0.34-1,0.761-1
	h21.312c0.421,0,0.762,0.447,0.762,1v13c0,0.553-0.341,1-0.762,1H15.094z"/>
<path fill="#5C5C5C" stroke="#2D2D2D" stroke-miterlimit="10" d="M37.761,15c-0.327,0-0.594-0.447-0.594-1V1
	c0-0.553,0.267-1,0.594-1h16.645C54.734,0,55,0.448,55,1v13c0,0.553-0.266,1-0.595,1H37.761z"/>
<path fill="#5C5C5C" stroke="#2D2D2D" stroke-miterlimit="10" d="M30.833,70C30.373,70,30,69.553,30,69V56c0-0.553,0.373-1,0.833-1
	h23.333C54.627,55,55,55.447,55,56v13c0,0.553-0.373,1-0.833,1H30.833z"/>
<path fill="#5C5C5C" stroke="#2D2D2D" stroke-miterlimit="10" d="M15,39c0,0.553-0.447,1-1,1H1c-0.553,0-1-0.447-1-1V1
	c0-0.552,0.447-1,1-1h13c0.553,0,1,0.448,1,1V39z"/>
<path fill="#5C5C5C" stroke="#2D2D2D" stroke-miterlimit="10" d="M15,54.5c0,0.276-0.447,0.5-1,0.5H1c-0.553,0-1-0.224-1-0.5v-19
	C0,35.224,0.447,35,1,35h13c0.553,0,1,0.224,1,0.5V54.5z"/>
<path fill="#5C5C5C" stroke="#2D2D2D" stroke-miterlimit="10" d="M70,69.125C70,69.608,69.553,70,69,70H56c-0.553,0-1-0.392-1-0.875
	v-33.25C55,35.392,55.447,35,56,35h13c0.553,0,1,0.392,1,0.875V69.125z"/>
<path fill="#5C5C5C" stroke="#2D2D2D" stroke-miterlimit="10" d="M70,34.692C70,34.862,69.553,35,69,35H56c-0.553,0-1-0.138-1-0.308
	V22.975c0-0.17,0.447-0.308,1-0.308h13c0.553,0,1,0.138,1,0.308V34.692z"/>
<path fill="#5C5C5C" stroke="#2D2D2D" stroke-miterlimit="10" d="M70,22.1c0,0.313-0.447,0.566-1,0.566H56c-0.553,0-1-0.253-1-0.566
	V0.567C55,0.254,55.447,0,56,0h13c0.553,0,1,0.254,1,0.566V22.1z"/>
</svg>
