<?xml version="1.0" encoding="utf-8"?>
<!-- Generator: Adobe Illustrator 16.0.0, SVG Export Plug-In . SVG Version: 6.00 Build 0)  -->
<!DOCTYPE svg PUBLIC "-//W3C//DTD SVG 1.1//EN" "http://www.w3.org/Graphics/SVG/1.1/DTD/svg11.dtd">
<svg version="1.1" id="Calque_1" xmlns="http://www.w3.org/2000/svg" xmlns:xlink="http://www.w3.org/1999/xlink" x="0px" y="0px"
	 width="70px" height="70px" viewBox="0 0 70 70" enable-background="new 0 0 70 70" xml:space="preserve">
<path fill="#664317" stroke="#000000" stroke-miterlimit="10" d="M41.549,41.775c0,0,2.909,3.814-0.056,8.227
	c0,0-5.207,2.148-7.431-0.185s-1.3-6.271-1.512-8.042H41.549z"/>
<path fill="#FEDBA9" stroke="#000000" stroke-miterlimit="10" d="M38.499,55.429c-0.25,0.886-1.324,1.438-2.4,1.231l-2.922-0.557
	c-1.076-0.205-0.746-1.911-0.498-2.797l1.595-8.394c0.249-0.886,1.323-1.438,2.399-1.231l3.672,1.543
	c1.076,0.206,1.295,2.692,1.047,3.577L38.499,55.429z"/>
<path fill="#FEDBA9" stroke="#000000" stroke-miterlimit="10" d="M38.593,64.366c0,0.908-0.895,1.646-2,1.646h-1.04
	c-1.104,0-1-0.737-1-1.646l-2-7.679c0-0.908,0.895-0.822,2-0.822h2.04c1.105,0,2,0.736,2,1.646V64.366z"/>
<path fill="#FEDBA9" stroke="#000000" stroke-miterlimit="10" d="M31.421,67.354c0,0.909-0.104,0.646,1,0.646h5.258
	c1.104,0,1-0.736,1-1.646v-0.686c0-0.909-0.896-1.823-2-1.823l-4.258,2c-1.104,0-1-0.264-1,0.646V67.354z"/>
<path fill="#FEDBA9" d="M32.788,56.435c0,0.454,0.447,0.822,0.998,0.822h0.916c0.552,0,1.999-0.368,1.999-0.822v-1.143
	c0-0.454-1.447-0.822-1.999-0.822h-0.916c-0.551,0-0.998,0.368-0.998,0.822V56.435z"/>
<circle fill="#FEDBA9" cx="36.678" cy="64.087" r="1.751"/>
<path fill="#E8AD67" d="M33.331,57.257c0,0,2.951,6.238,3.348,6.83s-1.643,0.588-1.643,0.588l0.021-0.588L33.331,57.257z"/>
<path fill="#E8AD67" d="M33.331,53.958c0,0,0.007,0.667,0.549,0.917l-0.856-0.107l0.308-1.393V53.958z"/>
<ellipse transform="matrix(0.9542 -0.299 0.299 0.9542 -15.4181 13.7461)" fill="#FFFFFF" cx="37.21" cy="57.256" rx="0.188" ry="0.542"/>
<path fill="#E8AD67" d="M39.927,48.416c0,0,0.172,1.852,0,2.488C39.927,50.904,40.89,48.832,39.927,48.416z"/>
<path fill="#FEDBA9" stroke="#000000" stroke-miterlimit="10" d="M32.617,22.976c0,0,0.499,0.545,0,1.465c0,0-0.751,0-0.751,0.684
	c0,0-4.549,1.875-2.23,8.255c0,0,0.51,0.829,1.786,0.731c0,0-1.191,2.086,0.946,2.66c0,0-1.729,2.124,0.183,2.901
	c0,0-1.059,1.326,0.066,2.104h8.932c0,0,0.409-6.999,1.901-8.592s2.199-10.493-5.09-11.272s0,0,0,0l-1.348-2.243l-4.957,1.155
	L32.617,22.976"/>
<path fill="#E8AD67" d="M33.011,36.781l0.219-0.297c0,0,2.459-0.16,1.417-3.283v-0.006c-1.335,0.778-2.651,0.93-2.651,0.93
	l0.281-0.547c5.75-2,4.68-4.912,4.68-4.912l0.137,0.352c1.942,1.081,4.107-1.644,4.107-1.644c-0.389,3.5-4.244,3.285-4.244,3.285
	v-0.001c-0.445,1.04-1.163,1.771-1.915,2.286c0.175,0.524,0.644,2.156-0.062,2.821c0,0-0.029,0.033-0.069,0.078
	c0.224,0.57,0.853,2.442-0.264,3.141c0,0-0.821,0.693-1.511,0.766l0.219-0.281c0,0,2.349-0.441,1.351-3.424
	C34.378,36.343,33.777,36.771,33.011,36.781z"/>
<path fill="#E8AD67" d="M42.825,33.188c0,0-0.27,0.688-2.284,1.188c0,0,1.213,0.563,0.942,3.625L42.825,33.188z"/>
<path fill="#E8AD67" d="M36.956,22.813c0,0-3.43,0.625-3.867,2.063c0,0,0.472-1.351,0-1.625l1-0.438
	C34.089,22.813,35.136,23.125,36.956,22.813z"/>
<g>
	<path fill="#FEDBA9" stroke="#000000" stroke-miterlimit="10" d="M35.354,28.32c-0.998-0.69-1.291-1.452-1.291-2.597
		c0-2.08,2.086-3.765,4.659-3.765c2.574,0,4.661,1.686,4.661,3.765c0,1.116,0.003,1.39-0.853,2.939l-0.367,4.38
		c0.037,0.473-0.216,1.225-0.535,1.391c-0.023,1.125-1.109,1.689-2.508,1.689h-0.924c-0.586,0-1.12-0.165-1.552-0.434
		c-1.478-0.458-2.143-1.691-2.143-3.469c0-1.357-0.124-2.488,0.835-3.18C35.345,28.996,35.342,28.365,35.354,28.32z"/>
	<path fill="#FFFFFF" d="M40.274,25.039c0.48,0.784,1.211,1.283,1.633,1.114s0.375-0.941-0.104-1.725
		c-0.479-0.784-1.212-1.283-1.634-1.114S39.794,24.255,40.274,25.039z"/>
	<path fill="#E8AD67" d="M34.846,26.662c0,0,1.361,1.343,2.569,1.848c0,0-2.078,0.539-2.345,3.088c0,0-0.479-0.793,0.64-3.186
		C35.71,28.412,34.123,26.662,34.846,26.662z"/>
	<path fill="#FFFFFF" d="M37.65,30.25c-0.231,0.529-0.656,0.891-0.947,0.807c-0.289-0.084-0.337-0.579-0.105-1.108
		c0.232-0.529,0.656-0.89,0.946-0.807C37.835,29.225,37.882,29.721,37.65,30.25z"/>
	<path fill="#E8AD67" d="M42.467,27.759c0,0-0.544,0.657-1.429,0.858c0,0,0.626,1.596,0.715,2.151
		c0.089,0.555,0.26-2.111,0.297-2.235C42.128,28.278,42.467,27.759,42.467,27.759z"/>
</g>
<g>
	<path fill="#FEDBA9" stroke="#000000" stroke-miterlimit="10" d="M34.359,44.539c-0.014-0.174,0.006-0.371,0.054-0.588l0.093-6.607
		c0.189-0.865,1.342-3.104,2.486-2.97l2.581-0.263c1.145,0.133,2.014,1.507,1.824,2.372l-0.012,0.037
		c0.188,0.906,0.084,2.201-0.352,3.598c-0.46,1.473-1.186,2.725-1.938,3.473l-0.262,0.813c-0.063,0.287-0.136,0.537-0.241,0.742
		c0.099,0.141,0.158,0.295,0.158,0.461v2.445c0,0.588-0.7,1.066-1.564,1.066h-2.803c-0.864,0-1.314-0.195-1.588-0.404l-0.246-2.482
		C32.82,45.021,33.508,44.551,34.359,44.539z"/>
	<path fill="#FFFFFF" d="M37.319,47.154c0.123,0.602,0.301,1.08,0.396,1.066s0.074-0.512-0.049-1.113s-0.301-1.08-0.396-1.066
		C37.174,46.055,37.195,46.553,37.319,47.154z"/>
	<ellipse fill="#FFFFFF" cx="35.993" cy="47.131" rx="0.176" ry="1.105"/>
	<path fill="#FFFFFF" d="M34.402,47.107c-0.121,0.604-0.141,1.102-0.045,1.113c0.096,0.014,0.271-0.465,0.393-1.066
		c0.12-0.602,0.139-1.102,0.043-1.113C34.697,46.027,34.521,46.506,34.402,47.107z"/>
	<ellipse fill="#FEDBA9" cx="38.36" cy="34.873" rx="2.842" ry="2.379"/>
	<path fill="#FFFFFF" d="M38.45,39.455c-0.474,1.846-0.639,3.381-0.368,3.426s0.874-1.416,1.347-3.262
		c0.474-1.846,0.639-3.381,0.368-3.426S38.923,37.609,38.45,39.455z"/>
	<path fill="#E8AD67" d="M35.58,34.382l1.835,1.102l-2.122,2.625c0,0-0.629-1.771-0.16-1.834c0,0,0.571-0.66,0.436-0.969
		C35.568,35.306,35.462,34.769,35.58,34.382z"/>
	<path fill="#E8AD67" d="M34.948,43.934c0,0,0.019,0.707,0.394,1.01h-0.875L34.948,43.934z"/>
</g>
<path fill="#FEDBA9" stroke="#000000" stroke-miterlimit="10" d="M26.683,18.079c-1.088-1.605-1.725-3.542-1.725-5.627
	C24.958,6.906,29.454,2.41,35,2.41c5.545,0,10.042,4.496,10.042,10.042S40.546,22.494,35,22.494c-0.355,0-0.706-0.02-1.052-0.056
	c-1.395,0.486-2.811,1.226-2.986,1.625c-0.24,0.547-3.279,1.279-4.063-4.06c-0.001,0,0.121,0.82,0.121,0.82
	c-0.445-0.008-1.396-0.812-1.569-1.156C25.327,19.421,26.186,18.552,26.683,18.079z"/>
<path fill="#FFFFFF" d="M35.361,19.38c0,0.529-0.09,0.446,0.219,0.446h0.286c0.529,0,0.589,0.083,0.589-0.446l-0.219-0.495
	c0-0.529-0.111-0.958-0.641-0.958h-0.172c-0.124,0-0.063,0.429-0.063,0.958V19.38z"/>
<path fill="#E8AD67" d="M33.872,18.319l-0.334,0.685c-0.055,0.113,0.014,0.261,0.153,0.329"/>
<path fill="#FEDBA9" stroke="#000000" stroke-miterlimit="10" d="M38.292,18.203c0,0-0.703,3.763-2.21,3.763
	c-1.506,0-4.844,1.47-5.12,2.098c-0.24,0.547-3.279,1.279-4.063-4.06c-0.001,0,0.121,0.82,0.121,0.82
	c-0.445-0.008-1.396-0.812-1.569-1.156c-0.129-0.256,0.803-1.185,1.288-1.643c-0.01-0.271-0.025-0.527-0.025-0.82"/>
<path fill="none" stroke="#000000" stroke-miterlimit="10" d="M27.405,22.298c3.668,0,3.666-1.167,3.666-1.167"/>
<ellipse transform="matrix(0.8553 -0.5182 0.5182 0.8553 1.4485 22.2427)" fill="#FFFFFF" cx="40.541" cy="8.528" rx="1.375" ry="2.599"/>
<path fill="#E8AD67" d="M35.089,21.542c0,0-0.172,0.194-2.648,0.958C32.44,22.5,33.475,20.444,35.089,21.542z"/>
<path fill="#E8AD67" d="M33.297,13.426c0,0-2.708-0.77-6.75,1.923c0,0-0.011-0.055,0-0.309
	C26.547,15.04,29.214,11.727,33.297,13.426z"/>
<path fill="#FEDBA9" stroke="#000000" stroke-miterlimit="10" d="M38.665,15.653c-0.203-0.33-0.33-0.747-0.33-1.208
	c0-1.056,0.641-1.912,1.433-1.912c0.791,0,1.433,0.856,1.433,1.912c0,1.056-0.642,1.912-1.433,1.912
	c-0.083,0-0.164-0.015-0.243-0.033c0.021,0.086,0.047,0.172,0.047,0.267c0,0.528-0.371,0.956-0.828,0.956s-0.828-0.428-0.828-0.956
	C37.915,16.095,38.247,15.701,38.665,15.653z"/>
<g>
	<path fill="#FFFFFF" stroke="#000000" stroke-width="0.5" stroke-miterlimit="10" d="M27.718,16.962
		c0.109-0.768,0.904-2.18,2.193-1.995c1.289,0.184,1.904,0.016,1.795,0.784c-0.109,0.768-0.902,2.181-2.193,1.996
		C28.224,17.563,27.608,17.731,27.718,16.962z"/>
	<circle fill="#512D11" cx="29.239" cy="16.544" r="1.195"/>
	<path fill="none" stroke="#000000" stroke-width="0.5" stroke-miterlimit="10" d="M27.718,16.962
		c0.109-0.768,0.904-2.18,2.193-1.995c1.289,0.184,1.904,0.016,1.795,0.784c-0.109,0.768-0.902,2.181-2.193,1.996
		C28.224,17.563,27.608,17.731,27.718,16.962z"/>
</g>
<path fill="#512D11" stroke="#000000" stroke-width="0.5" stroke-miterlimit="10" d="M25.474,14.643c0,0,2.484-3.322,5.855-1.786
	c0,0-2.738-0.58-4.771,1.929C26.558,14.786,25.922,15.554,25.474,14.643z"/>
</svg>
