<?xml version="1.0" encoding="utf-8"?>
<!-- Generator: Adobe Illustrator 16.0.0, SVG Export Plug-In . SVG Version: 6.00 Build 0)  -->
<!DOCTYPE svg PUBLIC "-//W3C//DTD SVG 1.1//EN" "http://www.w3.org/Graphics/SVG/1.1/DTD/svg11.dtd">
<svg version="1.1" xmlns="http://www.w3.org/2000/svg" xmlns:xlink="http://www.w3.org/1999/xlink" x="0px" y="0px" width="70px"
	 height="70px" viewBox="0 0 70 70" enable-background="new 0 0 70 70" xml:space="preserve">
<g id="Calque_1" display="none">
	<g display="inline">
		<path fill="none" stroke="#E8AD67" stroke-miterlimit="10" d="M32.915,26.525c1.104,0,2,0.896,2,2v3.083c0,1.104-0.896,2-2,2
			h-5.057c-1.104,0-2-0.896-2-2l-1-3.083c0-1.104,0.896-2,2-2"/>
		<path fill="none" stroke="#E8AD67" stroke-miterlimit="10" d="M42.973,26.525c1.104,0,2,0.896,2,2l-1,3.083c0,1.104-0.896,2-2,2
			h-5.058c-1.105,0-2-0.896-2-2v-3.083c0-1.104,0.896-2,2-2"/>
	</g>
	<g display="inline">
		<path fill="none" stroke="#E8AD67" stroke-miterlimit="10" d="M34.796,35.541c0,0.68-0.55,1.229-1.229,1.229h-1.458
			c-0.679,0-1.229-0.55-1.229-1.229l0,0c0-0.679,0.55-1.229,1.229-1.229h1.458C34.246,34.312,34.796,34.862,34.796,35.541
			L34.796,35.541z"/>
		<path fill="none" stroke="#E8AD67" stroke-miterlimit="10" d="M34.796,38.518c0,0.638-0.517,1.154-1.153,1.154H32.95
			c-0.637,0-1.153-0.517-1.153-1.154l0,0c0-0.637,0.517-1.153,1.153-1.153h0.693C34.28,37.364,34.796,37.881,34.796,38.518
			L34.796,38.518z"/>
		<path fill="none" stroke="#E8AD67" stroke-miterlimit="10" d="M35.033,35.541c0,0.68,0.551,1.229,1.229,1.229h1.458
			c0.68,0,1.229-0.55,1.229-1.229l0,0c0-0.679-0.55-1.229-1.229-1.229h-1.458C35.584,34.312,35.033,34.862,35.033,35.541
			L35.033,35.541z"/>
		<path fill="none" stroke="#E8AD67" stroke-miterlimit="10" d="M35.033,38.518c0,0.638,0.518,1.154,1.154,1.154h0.693
			c0.637,0,1.152-0.517,1.152-1.154l0,0c0-0.637-0.516-1.153-1.152-1.153h-0.693C35.551,37.364,35.033,37.881,35.033,38.518
			L35.033,38.518z"/>
	</g>
	<path display="inline" fill="#E8AD67" d="M39.752,23.868c0,0,1.785-1.444,4.498,0.857c0,0-0.313-2.197-2.823-3.593L39.752,23.868z"
		/>
</g>
<g id="Calque_3">
	<g>
		<g>
			<path fill="#FEDBA9" stroke="#000000" stroke-miterlimit="10" d="M24.864,28.32c0.998-0.69,1.292-1.452,1.292-2.597
				c0-2.08-2.087-3.765-4.66-3.765c-2.574,0-4.661,1.686-4.661,3.765c0,1.116-0.003,1.39,0.852,2.939l0.367,4.38
				c-0.036,0.473,0.216,1.225,0.535,1.391c0.024,1.124,1.11,1.689,2.508,1.689h0.923c0.586,0,1.121-0.166,1.552-0.435
				c1.478-0.458,2.142-1.691,2.142-3.468c0-1.358,0.125-2.488-0.834-3.18C24.873,28.995,24.875,28.365,24.864,28.32z"/>
			<path fill="#FFFFFF" d="M19.943,25.031c-0.48,0.784-1.211,1.283-1.633,1.114s-0.375-0.941,0.105-1.725
				c0.48-0.784,1.211-1.283,1.633-1.114S20.423,24.248,19.943,25.031z"/>
			<path fill="#E8AD67" d="M25.372,26.654c0,0-1.362,1.343-2.57,1.848c0,0,2.078,0.539,2.344,3.088c0,0,0.48-0.793-0.639-3.186
				C24.507,28.404,26.095,26.654,25.372,26.654z"/>
			<path fill="#FFFFFF" d="M22.567,30.242c0.232,0.529,0.656,0.89,0.947,0.807c0.29-0.084,0.337-0.58,0.105-1.109
				c-0.232-0.529-0.656-0.89-0.946-0.807C22.382,29.217,22.335,29.713,22.567,30.242z"/>
			<path fill="#E8AD67" d="M17.75,27.751c0,0,0.544,0.657,1.428,0.858c0,0-0.625,1.596-0.714,2.151
				c-0.089,0.556-0.259-2.11-0.297-2.235C18.089,28.271,17.75,27.751,17.75,27.751z"/>
		</g>
		<g>
			<path fill="#FEDBA9" stroke="#000000" stroke-miterlimit="10" d="M25.857,44.531c0.014-0.175-0.005-0.371-0.053-0.588
				l-0.092-6.607c-0.19-0.865-1.342-3.104-2.487-2.97l-2.581-0.263c-1.145,0.132-2.014,1.507-1.824,2.372l0.012,0.036
				c-0.189,0.907-0.085,2.202,0.351,3.599c0.46,1.473,1.187,2.725,1.938,3.472l0.263,0.813c0.063,0.287,0.135,0.537,0.241,0.743
				c-0.098,0.14-0.158,0.295-0.158,0.46v2.445c0,0.589,0.701,1.066,1.564,1.066h2.804c0.864,0,1.314-0.195,1.587-0.403l0.247-2.483
				C27.397,45.014,26.71,44.542,25.857,44.531z"/>
			<path fill="#FFFFFF" d="M22.898,47.146c-0.123,0.603-0.301,1.08-0.396,1.066c-0.096-0.013-0.074-0.511,0.049-1.112
				s0.301-1.08,0.396-1.066C23.043,46.046,23.021,46.545,22.898,47.146z"/>
			<ellipse fill="#FFFFFF" cx="24.225" cy="47.123" rx="0.176" ry="1.104"/>
			<path fill="#FFFFFF" d="M25.815,47.1c0.121,0.603,0.14,1.101,0.044,1.113s-0.271-0.465-0.392-1.067
				c-0.121-0.602-0.14-1.101-0.044-1.113S25.695,46.498,25.815,47.1z"/>
			<ellipse fill="#FEDBA9" cx="21.857" cy="34.864" rx="2.842" ry="2.38"/>
			<path fill="#FFFFFF" d="M21.767,39.447c0.474,1.846,0.639,3.38,0.368,3.425s-0.874-1.415-1.347-3.261
				c-0.474-1.846-0.639-3.381-0.368-3.426S21.294,37.602,21.767,39.447z"/>
			<path fill="#E8AD67" d="M24.638,34.375l-1.835,1.102l2.123,2.625c0,0,0.628-1.772,0.159-1.834c0,0-0.571-0.66-0.435-0.969
				C24.649,35.299,24.755,34.761,24.638,34.375z"/>
			<path fill="#E8AD67" d="M25.269,43.925c0,0-0.019,0.707-0.394,1.01h0.875L25.269,43.925z"/>
		</g>
		<g>
			<path fill="#FEDBA9" stroke="#000000" stroke-miterlimit="10" d="M45.137,28.32c-0.998-0.69-1.291-1.452-1.291-2.597
				c0-2.08,2.086-3.765,4.66-3.765s4.66,1.686,4.66,3.765c0,1.116,0.004,1.39-0.852,2.939l-0.367,4.38
				c0.035,0.473-0.217,1.225-0.535,1.391c-0.023,1.124-1.111,1.689-2.508,1.689H47.98c-0.586,0-1.121-0.166-1.553-0.435
				c-1.477-0.458-2.143-1.691-2.143-3.468c0-1.358-0.123-2.488,0.836-3.18C45.129,28.995,45.125,28.365,45.137,28.32z"/>
			<path fill="#E8AD67" d="M44.629,26.654c0,0,1.361,1.343,2.57,1.848c0,0-2.078,0.539-2.346,3.088c0,0-0.479-0.793,0.641-3.186
				C45.494,28.404,43.906,26.654,44.629,26.654z"/>
			<path fill="#E8AD67" d="M52.25,27.751c0,0-0.543,0.657-1.428,0.858c0,0,0.625,1.596,0.715,2.151
				c0.088,0.556,0.258-2.11,0.297-2.235C51.912,28.271,52.25,27.751,52.25,27.751z"/>
		</g>
		<g>
			<path fill="#FEDBA9" stroke="#000000" stroke-miterlimit="10" d="M44.143,44.531c-0.014-0.175,0.006-0.371,0.055-0.588
				l0.092-6.607c0.189-0.865,1.342-3.104,2.486-2.97l2.582-0.263c1.145,0.132,2.014,1.507,1.824,2.372l-0.014,0.036
				c0.189,0.907,0.086,2.202-0.35,3.599c-0.461,1.473-1.188,2.725-1.938,3.472l-0.264,0.813c-0.063,0.287-0.135,0.537-0.24,0.743
				c0.098,0.14,0.158,0.295,0.158,0.46v2.445c0,0.589-0.701,1.066-1.564,1.066h-2.803c-0.863,0-1.314-0.195-1.588-0.403
				l-0.246-2.483C42.604,45.014,43.291,44.542,44.143,44.531z"/>
			<path fill="#FFFFFF" d="M47.102,47.146c0.123,0.603,0.301,1.08,0.396,1.066c0.096-0.013,0.074-0.511-0.049-1.112
				s-0.301-1.08-0.396-1.066C46.957,46.046,46.979,46.545,47.102,47.146z"/>
			<ellipse fill="#FFFFFF" cx="45.776" cy="47.123" rx="0.177" ry="1.104"/>
			<path fill="#FFFFFF" d="M44.186,47.1c-0.121,0.603-0.141,1.101-0.045,1.113s0.271-0.465,0.393-1.067
				c0.121-0.602,0.139-1.101,0.043-1.113S44.305,46.498,44.186,47.1z"/>
			<ellipse fill="#FEDBA9" cx="48.144" cy="34.864" rx="2.843" ry="2.38"/>
			<path fill="#E8AD67" d="M45.363,34.375l1.836,1.102l-2.123,2.625c0,0-0.572-1.772-0.104-1.834c0,0,0.516-0.66,0.379-0.969
				C45.352,35.299,45.246,34.761,45.363,34.375z"/>
			<path fill="#E8AD67" d="M44.732,43.925c0,0,0.018,0.707,0.393,1.01H44.25L44.732,43.925z"/>
			<path fill="#E8AD67" d="M50.822,37.438c0,0-1.002,3.808-3.623,6.201C47.199,43.639,50.006,44.188,50.822,37.438z"/>
		</g>
	</g>
</g>
<g id="Calque_2">
	<path fill="#FEDBA9" stroke="#000000" stroke-miterlimit="10" d="M45.736,12.792c-0.236-0.054-0.479-0.002-0.705,0.12
		c0.008-0.167,0.025-0.332,0.025-0.501c0-5.554-4.5-10.056-10.055-10.056c-5.554,0-10.057,4.502-10.057,10.056
		c0,0.169,0.019,0.334,0.027,0.501c-0.228-0.122-0.47-0.174-0.707-0.12c-0.703,0.16-1.082,1.126-0.847,2.158
		c0.205,0.898,0.808,1.548,1.424,1.596c-0.116,0.195-0.163,0.431-0.109,0.668c0.113,0.493,0.603,0.801,1.096,0.689
		c0.228-0.052,0.41-0.19,0.535-0.366c0.501,0.837,0.115,1.6,0.828,2.258l2,1.933c0,1.324,2.518,3.396,4.39,3.396h2.837
		c1.873,0,4.391-2.073,4.391-3.396l2-1.932c0.713-0.658,0.326-1.42,0.828-2.258c0.125,0.176,0.307,0.314,0.533,0.366
		c0.494,0.112,0.984-0.196,1.098-0.689c0.053-0.238,0.006-0.474-0.109-0.668c0.615-0.048,1.219-0.698,1.424-1.596
		C46.818,13.919,46.439,12.953,45.736,12.792z"/>
	
		<ellipse transform="matrix(-0.8553 -0.5182 0.5182 -0.8553 50.4005 31.1342)" fill="#FFFFFF" cx="29.548" cy="8.528" rx="1.375" ry="2.599"/>
	
		<ellipse transform="matrix(0.9246 0.3809 -0.3809 0.9246 7.1142 -8.466)" fill="#FFFFFF" cx="24.945" cy="13.74" rx="0.75" ry="0.292"/>
	<path fill="#FFFFFF" d="M33.584,24.183c-0.083,0.189-0.305,0.275-0.494,0.192l-0.744-0.328c-0.189-0.083-0.275-0.305-0.192-0.494
		l0,0c0.083-0.189,0.305-0.275,0.494-0.192l0.744,0.328C33.582,23.772,33.667,23.994,33.584,24.183L33.584,24.183z"/>
	<path fill="#E8AD67" stroke="#E8AD67" stroke-miterlimit="10" d="M37.037,14.133c0,0-1.541,6.674,2.93,7.367l-0.441-2.171
		C39.525,19.329,38.238,18.099,37.037,14.133z"/>
</g>
<g id="Calque_5">
	<path fill="#FEDBA9" stroke="#000000" stroke-miterlimit="10" d="M30.379,55.429c-0.25,0.886-1.324,1.438-2.4,1.231l-2.923-0.557
		c-1.076-0.205-0.746-1.911-0.497-2.797l1.595-8.394c0.25-0.886,1.324-1.438,2.4-1.231l3.671,1.543
		c1.076,0.206,1.295,2.692,1.046,3.577L30.379,55.429z"/>
	<path fill="#FEDBA9" stroke="#000000" stroke-miterlimit="10" d="M39.621,55.429c0.25,0.886,1.324,1.438,2.4,1.231l2.922-0.557
		c1.076-0.205,0.746-1.911,0.498-2.797l-1.596-8.394c-0.25-0.886-1.324-1.438-2.4-1.231l-3.67,1.543
		c-1.076,0.206-1.295,2.692-1.047,3.577L39.621,55.429z"/>
	<g>
		<path fill="#FEDBA9" stroke="#000000" stroke-miterlimit="10" d="M30.658,64.366c0,0.908-0.896,1.646-2,1.646h-1.041
			c-1.105,0-1-0.737-1-1.646l-2-7.679c0-0.908,0.895-0.822,2-0.822h2.041c1.104,0,2,0.736,2,1.646V64.366z"/>
		<path fill="#FEDBA9" stroke="#000000" stroke-miterlimit="10" d="M39.525,64.366c0,0.908,0.895,1.646,2,1.646h1.041
			c1.104,0,1-0.737,1-1.646l2-7.679c0-0.908-0.896-0.822-2-0.822h-2.041c-1.105,0-2,0.736-2,1.646V64.366z"/>
	</g>
	<g>
		<path fill="#FEDBA9" stroke="#000000" stroke-miterlimit="10" d="M30.626,66.354c0,0.909,0.104,1.646-1,1.646H24.37
			c-1.104,0-1,0.264-1-0.646v-0.863c0-0.909-0.104-0.646,1-0.646l4.257-2c1.104,0,2,0.914,2,1.823V66.354z"/>
		<path fill="#FEDBA9" stroke="#000000" stroke-miterlimit="10" d="M46.697,67.354c0,0.909,0.105,0.646-1,0.646h-5.256
			c-1.105,0-1-0.736-1-1.646v-0.686c0-0.909,0.895-1.823,2-1.823l4.256,2c1.105,0,1-0.264,1,0.646V67.354z"/>
	</g>
	<g>
		<path fill="#FEDBA9" d="M28.954,56.435c0,0.454-1.447,0.822-1.998,0.822h-0.915c-0.552,0-0.998-0.368-0.998-0.822v-1.143
			c0-0.454,0.446-0.822,0.998-0.822h0.915c0.55,0,1.998,0.368,1.998,0.822V56.435z"/>
		<path fill="#FEDBA9" d="M45.33,56.435c0,0.454-0.447,0.822-0.998,0.822h-0.914c-0.553,0-1.998-0.368-1.998-0.822v-1.143
			c0-0.454,1.445-0.822,1.998-0.822h0.914c0.551,0,0.998,0.368,0.998,0.822V56.435z"/>
	</g>
	
		<ellipse transform="matrix(0.9912 0.1321 -0.1321 0.9912 6.9125 -3.1235)" fill="#FFFFFF" cx="26.999" cy="50.539" rx="0.458" ry="3.417"/>
	<path fill="#E8AD67" d="M32.042,45.809l-2.458,9.187c0,0,2.459-4.263,3.083-6.102C32.667,48.894,32.914,45.569,32.042,45.809z"/>
	<path fill="#E8AD67" d="M39.559,45.001c0,0,2.016,9.377,1.604,9.994s-0.945,1.098-1.637-1.097l-2.357-5.21
		c0,0-0.627-2.32,0.865-3.081L39.559,45.001z"/>
	<circle fill="#FEDBA9" cx="28.39" cy="64.087" r="1.751"/>
	<circle fill="#FEDBA9" cx="41.44" cy="64.087" r="1.751"/>
	
		<ellipse transform="matrix(0.9932 0.1163 -0.1163 0.9932 6.6279 -2.5992)" fill="#FFFFFF" cx="25.578" cy="55.474" rx="0.344" ry="0.961"/>
	<path fill="#E8AD67" d="M44.789,57.257c0,0-2.059,5.997-2.455,6.589s0.75,0.829,0.75,0.829l-0.021-0.588L44.789,57.257z"/>
	<path fill="#E8AD67" d="M28.988,56.435l0.933,7.86l0.253-6.545C30.175,57.75,30.317,56.869,28.988,56.435z"/>
</g>
<g id="Calque_6">
	<path fill="#664317" stroke="#000000" stroke-miterlimit="10" d="M38.771,47.442c0,1.104-0.896,2-2,2h-3.476c-1.104,0-2-0.896-2-2
		l-4-4.667c0-1.104,0.896-2,2-2h11.476c1.104,0,2,0.896,2,2L38.771,47.442z"/>
	<line fill="#664317" stroke="#000000" stroke-miterlimit="10" x1="35.034" y1="47.796" x2="35.034" y2="43.797"/>
</g>
<g id="Calque_4">
	<path fill="#FEDBA9" stroke="#000000" stroke-miterlimit="10" d="M46.9,26.183v-1.99c0-1.104-0.895-2-2-2h-0.463
		c-2.203-1.792-5.645-2.864-9.521-2.864c-3.877,0-7.318,1.072-9.522,2.864h-0.463c-1.105,0-2,0.896-2,2v1.992
		c-0.042,0.274-0.063,0.555-0.063,0.841s0.021,0.564,0.063,0.834l2,4.999c0,0.563,0.235,1.071,0.61,1.434l1,4.875
		c0,1.439,0.896,2.606,2,2.606h12.75c1.104,0,2-1.167,2-2.606l1-4.875c0.375-0.364,0.609-0.871,0.609-1.434l2-4.997
		c0.041-0.271,0.063-0.55,0.063-0.837S46.941,26.458,46.9,26.183z"/>
	<path fill="none" stroke="#E8AD67" stroke-miterlimit="10" d="M35.034,24.875v3.715c0,1.657-1.343,3-3,3h-3.866
		c-1.657,0-3-1.343-3-3v-1.715"/>
	<path fill="none" stroke="#E8AD67" stroke-miterlimit="10" d="M35.035,24.875v3.715c0,1.657,1.342,3,3,3H41.9c1.656,0,3-1.343,3-3
		v-1.715"/>
	<path fill="#E8AD67" stroke="#E8AD67" stroke-miterlimit="10" d="M32.034,31.589c0,0,2.764,2.358,2.882,7.939
		c0,0-0.747-7.939,3.12-7.939c0,0-3-0.411-3-3C35.035,28.589,34.4,31.589,32.034,31.589z"/>
</g>
</svg>
